<mxfile host="Electron" modified="2023-09-12T14:07:04.547Z" agent="Mozilla/5.0 (Windows NT 10.0; Win64; x64) AppleWebKit/537.36 (KHTML, like Gecko) draw.io/21.5.1 Chrome/112.0.5615.204 Electron/24.6.0 Safari/537.36" etag="4VHYHAIILREDCqwBPxb2" version="21.5.1" type="device" pages="2">
  <diagram name="第 1 页" id="ACGijIuzrhd0nZVXjb5g">
    <mxGraphModel dx="1195" dy="697" grid="1" gridSize="10" guides="1" tooltips="1" connect="1" arrows="1" fold="1" page="1" pageScale="1" pageWidth="827" pageHeight="1169" math="0" shadow="0">
      <root>
        <mxCell id="0" />
        <mxCell id="1" parent="0" />
        <mxCell id="p3ihebE-vP7jaE2jx-pJ-1" value="" style="rounded=0;whiteSpace=wrap;html=1;fillColor=#e1d5e7;strokeColor=#9673a6;" vertex="1" parent="1">
          <mxGeometry x="220" y="210" width="470" height="330" as="geometry" />
        </mxCell>
        <mxCell id="p3ihebE-vP7jaE2jx-pJ-2" value="" style="rounded=0;whiteSpace=wrap;html=1;fillColor=#f8cecc;strokeColor=#b85450;" vertex="1" parent="1">
          <mxGeometry x="230" y="250" width="200" height="180" as="geometry" />
        </mxCell>
        <mxCell id="p3ihebE-vP7jaE2jx-pJ-3" value="L1数据缓存" style="rounded=1;whiteSpace=wrap;html=1;fillColor=#dae8fc;strokeColor=#6c8ebf;" vertex="1" parent="1">
          <mxGeometry x="250" y="300" width="66" height="30" as="geometry" />
        </mxCell>
        <mxCell id="p3ihebE-vP7jaE2jx-pJ-4" value="L1指令缓存" style="rounded=1;whiteSpace=wrap;html=1;fillColor=#dae8fc;strokeColor=#6c8ebf;" vertex="1" parent="1">
          <mxGeometry x="344" y="300" width="66" height="30" as="geometry" />
        </mxCell>
        <mxCell id="p3ihebE-vP7jaE2jx-pJ-5" value="CPU" style="text;html=1;strokeColor=none;fillColor=none;align=center;verticalAlign=middle;whiteSpace=wrap;rounded=0;" vertex="1" parent="1">
          <mxGeometry x="425" y="210" width="60" height="30" as="geometry" />
        </mxCell>
        <mxCell id="p3ihebE-vP7jaE2jx-pJ-6" value="核心1" style="text;html=1;strokeColor=none;fillColor=none;align=center;verticalAlign=middle;whiteSpace=wrap;rounded=0;" vertex="1" parent="1">
          <mxGeometry x="300" y="250" width="60" height="30" as="geometry" />
        </mxCell>
        <mxCell id="p3ihebE-vP7jaE2jx-pJ-7" value="L2缓存" style="rounded=1;whiteSpace=wrap;html=1;fillColor=#b1ddf0;strokeColor=#10739e;" vertex="1" parent="1">
          <mxGeometry x="250" y="370" width="160" height="40" as="geometry" />
        </mxCell>
        <mxCell id="p3ihebE-vP7jaE2jx-pJ-8" value="" style="endArrow=classic;startArrow=classic;html=1;rounded=0;entryX=0.5;entryY=1;entryDx=0;entryDy=0;" edge="1" parent="1" target="p3ihebE-vP7jaE2jx-pJ-3">
          <mxGeometry width="50" height="50" relative="1" as="geometry">
            <mxPoint x="283" y="370" as="sourcePoint" />
            <mxPoint x="290" y="330" as="targetPoint" />
          </mxGeometry>
        </mxCell>
        <mxCell id="p3ihebE-vP7jaE2jx-pJ-9" value="" style="endArrow=classic;startArrow=classic;html=1;rounded=0;entryX=0.5;entryY=1;entryDx=0;entryDy=0;" edge="1" parent="1">
          <mxGeometry width="50" height="50" relative="1" as="geometry">
            <mxPoint x="376.5" y="370" as="sourcePoint" />
            <mxPoint x="376.5" y="330" as="targetPoint" />
          </mxGeometry>
        </mxCell>
        <mxCell id="p3ihebE-vP7jaE2jx-pJ-10" value="" style="rounded=0;whiteSpace=wrap;html=1;fillColor=#f8cecc;strokeColor=#b85450;" vertex="1" parent="1">
          <mxGeometry x="480" y="250" width="200" height="180" as="geometry" />
        </mxCell>
        <mxCell id="p3ihebE-vP7jaE2jx-pJ-11" value="L1数据缓存" style="rounded=1;whiteSpace=wrap;html=1;fillColor=#dae8fc;strokeColor=#6c8ebf;" vertex="1" parent="1">
          <mxGeometry x="500" y="300" width="66" height="30" as="geometry" />
        </mxCell>
        <mxCell id="p3ihebE-vP7jaE2jx-pJ-12" value="L1指令缓存" style="rounded=1;whiteSpace=wrap;html=1;fillColor=#dae8fc;strokeColor=#6c8ebf;" vertex="1" parent="1">
          <mxGeometry x="594" y="300" width="66" height="30" as="geometry" />
        </mxCell>
        <mxCell id="p3ihebE-vP7jaE2jx-pJ-13" value="核心2" style="text;html=1;strokeColor=none;fillColor=none;align=center;verticalAlign=middle;whiteSpace=wrap;rounded=0;" vertex="1" parent="1">
          <mxGeometry x="550" y="250" width="60" height="30" as="geometry" />
        </mxCell>
        <mxCell id="p3ihebE-vP7jaE2jx-pJ-14" value="L2缓存" style="rounded=1;whiteSpace=wrap;html=1;fillColor=#b1ddf0;strokeColor=#10739e;" vertex="1" parent="1">
          <mxGeometry x="500" y="370" width="160" height="40" as="geometry" />
        </mxCell>
        <mxCell id="p3ihebE-vP7jaE2jx-pJ-15" value="" style="endArrow=classic;startArrow=classic;html=1;rounded=0;entryX=0.5;entryY=1;entryDx=0;entryDy=0;" edge="1" target="p3ihebE-vP7jaE2jx-pJ-11" parent="1">
          <mxGeometry width="50" height="50" relative="1" as="geometry">
            <mxPoint x="533" y="370" as="sourcePoint" />
            <mxPoint x="540" y="330" as="targetPoint" />
          </mxGeometry>
        </mxCell>
        <mxCell id="p3ihebE-vP7jaE2jx-pJ-16" value="" style="endArrow=classic;startArrow=classic;html=1;rounded=0;entryX=0.5;entryY=1;entryDx=0;entryDy=0;" edge="1" parent="1">
          <mxGeometry width="50" height="50" relative="1" as="geometry">
            <mxPoint x="626.5" y="370" as="sourcePoint" />
            <mxPoint x="626.5" y="330" as="targetPoint" />
          </mxGeometry>
        </mxCell>
        <mxCell id="p3ihebE-vP7jaE2jx-pJ-17" value="L3缓存" style="rounded=1;whiteSpace=wrap;html=1;fillColor=#bac8d3;strokeColor=#23445d;" vertex="1" parent="1">
          <mxGeometry x="250" y="460" width="410" height="60" as="geometry" />
        </mxCell>
        <mxCell id="p3ihebE-vP7jaE2jx-pJ-18" value="" style="endArrow=classic;startArrow=classic;html=1;rounded=0;entryX=0.5;entryY=1;entryDx=0;entryDy=0;exitX=0.192;exitY=-0.017;exitDx=0;exitDy=0;exitPerimeter=0;" edge="1" parent="1" source="p3ihebE-vP7jaE2jx-pJ-17">
          <mxGeometry width="50" height="50" relative="1" as="geometry">
            <mxPoint x="329.65999999999997" y="450" as="sourcePoint" />
            <mxPoint x="329.65999999999997" y="410" as="targetPoint" />
          </mxGeometry>
        </mxCell>
        <mxCell id="p3ihebE-vP7jaE2jx-pJ-19" value="" style="endArrow=classic;startArrow=classic;html=1;rounded=0;entryX=0.5;entryY=1;entryDx=0;entryDy=0;" edge="1" parent="1">
          <mxGeometry width="50" height="50" relative="1" as="geometry">
            <mxPoint x="580" y="460" as="sourcePoint" />
            <mxPoint x="580.1899999999999" y="410" as="targetPoint" />
          </mxGeometry>
        </mxCell>
        <mxCell id="p3ihebE-vP7jaE2jx-pJ-20" value="主存" style="rounded=1;whiteSpace=wrap;html=1;fillColor=#fad7ac;strokeColor=#b46504;" vertex="1" parent="1">
          <mxGeometry x="220" y="570" width="470" height="60" as="geometry" />
        </mxCell>
        <mxCell id="p3ihebE-vP7jaE2jx-pJ-21" value="" style="endArrow=classic;startArrow=classic;html=1;rounded=0;exitX=0.5;exitY=0;exitDx=0;exitDy=0;entryX=0.5;entryY=1;entryDx=0;entryDy=0;" edge="1" parent="1" source="p3ihebE-vP7jaE2jx-pJ-20" target="p3ihebE-vP7jaE2jx-pJ-17">
          <mxGeometry width="50" height="50" relative="1" as="geometry">
            <mxPoint x="410" y="570" as="sourcePoint" />
            <mxPoint x="460" y="520" as="targetPoint" />
          </mxGeometry>
        </mxCell>
      </root>
    </mxGraphModel>
  </diagram>
  <diagram id="BAVsK_he-TRnKglAebo0" name="第 2 页">
    <mxGraphModel dx="1195" dy="697" grid="1" gridSize="10" guides="1" tooltips="1" connect="1" arrows="1" fold="1" page="1" pageScale="1" pageWidth="827" pageHeight="1169" math="0" shadow="0">
      <root>
        <mxCell id="0" />
        <mxCell id="1" parent="0" />
        <mxCell id="0zQAIz0TJpnZ4_54E1hD-2" value="" style="rounded=0;whiteSpace=wrap;html=1;fillColor=#f8cecc;strokeColor=#b85450;" vertex="1" parent="1">
          <mxGeometry x="230" y="250" width="200" height="180" as="geometry" />
        </mxCell>
        <mxCell id="0zQAIz0TJpnZ4_54E1hD-3" value="" style="rounded=1;whiteSpace=wrap;html=1;fillColor=#dae8fc;strokeColor=#6c8ebf;" vertex="1" parent="1">
          <mxGeometry x="250" y="300" width="160" height="120" as="geometry" />
        </mxCell>
        <mxCell id="0zQAIz0TJpnZ4_54E1hD-6" value="核心1" style="text;html=1;strokeColor=none;fillColor=none;align=center;verticalAlign=middle;whiteSpace=wrap;rounded=0;" vertex="1" parent="1">
          <mxGeometry x="300" y="250" width="60" height="30" as="geometry" />
        </mxCell>
        <mxCell id="0zQAIz0TJpnZ4_54E1hD-10" value="" style="rounded=0;whiteSpace=wrap;html=1;fillColor=#f8cecc;strokeColor=#b85450;" vertex="1" parent="1">
          <mxGeometry x="480" y="250" width="200" height="180" as="geometry" />
        </mxCell>
        <mxCell id="0zQAIz0TJpnZ4_54E1hD-13" value="核心2" style="text;html=1;strokeColor=none;fillColor=none;align=center;verticalAlign=middle;whiteSpace=wrap;rounded=0;" vertex="1" parent="1">
          <mxGeometry x="550" y="250" width="60" height="30" as="geometry" />
        </mxCell>
        <mxCell id="0zQAIz0TJpnZ4_54E1hD-20" value="" style="rounded=1;whiteSpace=wrap;html=1;fillColor=#fad7ac;strokeColor=#b46504;" vertex="1" parent="1">
          <mxGeometry x="220" y="460" width="470" height="220" as="geometry" />
        </mxCell>
        <mxCell id="0zQAIz0TJpnZ4_54E1hD-22" value="主存" style="text;html=1;strokeColor=none;fillColor=none;align=center;verticalAlign=middle;whiteSpace=wrap;rounded=0;" vertex="1" parent="1">
          <mxGeometry x="425" y="460" width="60" height="30" as="geometry" />
        </mxCell>
        <mxCell id="0zQAIz0TJpnZ4_54E1hD-23" value="L1" style="text;html=1;strokeColor=none;fillColor=none;align=center;verticalAlign=middle;whiteSpace=wrap;rounded=0;" vertex="1" parent="1">
          <mxGeometry x="300" y="300" width="60" height="30" as="geometry" />
        </mxCell>
        <mxCell id="0zQAIz0TJpnZ4_54E1hD-24" value="" style="rounded=0;whiteSpace=wrap;html=1;" vertex="1" parent="1">
          <mxGeometry x="260" y="330" width="120" height="30" as="geometry" />
        </mxCell>
        <mxCell id="0zQAIz0TJpnZ4_54E1hD-25" value="a" style="rounded=0;whiteSpace=wrap;html=1;" vertex="1" parent="1">
          <mxGeometry x="260" y="330" width="30" height="30" as="geometry" />
        </mxCell>
        <mxCell id="0zQAIz0TJpnZ4_54E1hD-26" value="b" style="rounded=0;whiteSpace=wrap;html=1;" vertex="1" parent="1">
          <mxGeometry x="290" y="330" width="30" height="30" as="geometry" />
        </mxCell>
        <mxCell id="0zQAIz0TJpnZ4_54E1hD-27" value="..." style="rounded=0;whiteSpace=wrap;html=1;" vertex="1" parent="1">
          <mxGeometry x="320" y="330" width="60" height="30" as="geometry" />
        </mxCell>
        <mxCell id="0zQAIz0TJpnZ4_54E1hD-28" value="" style="rounded=0;whiteSpace=wrap;html=1;" vertex="1" parent="1">
          <mxGeometry x="240" y="510" width="120" height="30" as="geometry" />
        </mxCell>
        <mxCell id="0zQAIz0TJpnZ4_54E1hD-29" value="a" style="rounded=0;whiteSpace=wrap;html=1;" vertex="1" parent="1">
          <mxGeometry x="240" y="510" width="30" height="30" as="geometry" />
        </mxCell>
        <mxCell id="0zQAIz0TJpnZ4_54E1hD-30" value="b" style="rounded=0;whiteSpace=wrap;html=1;" vertex="1" parent="1">
          <mxGeometry x="270" y="510" width="30" height="30" as="geometry" />
        </mxCell>
        <mxCell id="0zQAIz0TJpnZ4_54E1hD-31" value="" style="rounded=0;whiteSpace=wrap;html=1;" vertex="1" parent="1">
          <mxGeometry x="320" y="510" width="160" height="30" as="geometry" />
        </mxCell>
        <mxCell id="0zQAIz0TJpnZ4_54E1hD-32" value="..." style="rounded=0;whiteSpace=wrap;html=1;" vertex="1" parent="1">
          <mxGeometry x="300" y="510" width="370" height="30" as="geometry" />
        </mxCell>
        <mxCell id="0zQAIz0TJpnZ4_54E1hD-42" value="" style="shape=curlyBracket;whiteSpace=wrap;html=1;rounded=1;labelPosition=left;verticalLabelPosition=middle;align=right;verticalAlign=middle;size=0.5;rotation=90;" vertex="1" parent="1">
          <mxGeometry x="290" y="440" width="20" height="120" as="geometry" />
        </mxCell>
        <mxCell id="0zQAIz0TJpnZ4_54E1hD-44" value="一个缓存行大小" style="text;html=1;strokeColor=none;fillColor=none;align=center;verticalAlign=middle;whiteSpace=wrap;rounded=0;" vertex="1" parent="1">
          <mxGeometry x="255" y="470" width="90" height="30" as="geometry" />
        </mxCell>
        <mxCell id="0zQAIz0TJpnZ4_54E1hD-46" value="" style="rounded=1;whiteSpace=wrap;html=1;fillColor=#dae8fc;strokeColor=#6c8ebf;" vertex="1" parent="1">
          <mxGeometry x="500" y="300" width="160" height="120" as="geometry" />
        </mxCell>
        <mxCell id="0zQAIz0TJpnZ4_54E1hD-47" value="L1" style="text;html=1;strokeColor=none;fillColor=none;align=center;verticalAlign=middle;whiteSpace=wrap;rounded=0;" vertex="1" parent="1">
          <mxGeometry x="550" y="300" width="60" height="30" as="geometry" />
        </mxCell>
        <mxCell id="0zQAIz0TJpnZ4_54E1hD-48" value="" style="rounded=0;whiteSpace=wrap;html=1;" vertex="1" parent="1">
          <mxGeometry x="510" y="330" width="120" height="30" as="geometry" />
        </mxCell>
        <mxCell id="0zQAIz0TJpnZ4_54E1hD-49" value="a" style="rounded=0;whiteSpace=wrap;html=1;" vertex="1" parent="1">
          <mxGeometry x="510" y="330" width="30" height="30" as="geometry" />
        </mxCell>
        <mxCell id="0zQAIz0TJpnZ4_54E1hD-50" value="b" style="rounded=0;whiteSpace=wrap;html=1;" vertex="1" parent="1">
          <mxGeometry x="540" y="330" width="30" height="30" as="geometry" />
        </mxCell>
        <mxCell id="0zQAIz0TJpnZ4_54E1hD-51" value="..." style="rounded=0;whiteSpace=wrap;html=1;" vertex="1" parent="1">
          <mxGeometry x="570" y="330" width="60" height="30" as="geometry" />
        </mxCell>
        <mxCell id="jhWNpwx-mN4jyrC0Nx8Q-2" style="rounded=0;orthogonalLoop=1;jettySize=auto;html=1;entryX=0;entryY=0.5;entryDx=0;entryDy=0;" edge="1" parent="1" source="jhWNpwx-mN4jyrC0Nx8Q-1" target="0zQAIz0TJpnZ4_54E1hD-25">
          <mxGeometry relative="1" as="geometry" />
        </mxCell>
        <mxCell id="jhWNpwx-mN4jyrC0Nx8Q-1" value="1. 线程1修改了a的值" style="text;html=1;strokeColor=none;fillColor=none;align=center;verticalAlign=middle;whiteSpace=wrap;rounded=0;" vertex="1" parent="1">
          <mxGeometry x="110" y="250" width="100" height="30" as="geometry" />
        </mxCell>
        <mxCell id="jhWNpwx-mN4jyrC0Nx8Q-3" style="edgeStyle=orthogonalEdgeStyle;rounded=0;orthogonalLoop=1;jettySize=auto;html=1;entryX=0.5;entryY=1;entryDx=0;entryDy=0;curved=1;" edge="1" parent="1" source="0zQAIz0TJpnZ4_54E1hD-25" target="0zQAIz0TJpnZ4_54E1hD-49">
          <mxGeometry relative="1" as="geometry">
            <Array as="points">
              <mxPoint x="275" y="400" />
              <mxPoint x="525" y="400" />
            </Array>
          </mxGeometry>
        </mxCell>
        <mxCell id="jhWNpwx-mN4jyrC0Nx8Q-4" value="2. a所在的缓存行失效" style="text;html=1;strokeColor=none;fillColor=none;align=center;verticalAlign=middle;whiteSpace=wrap;rounded=0;" vertex="1" parent="1">
          <mxGeometry x="500" y="380" width="140" height="30" as="geometry" />
        </mxCell>
        <mxCell id="jhWNpwx-mN4jyrC0Nx8Q-7" style="rounded=0;orthogonalLoop=1;jettySize=auto;html=1;entryX=1;entryY=0.5;entryDx=0;entryDy=0;" edge="1" parent="1" source="jhWNpwx-mN4jyrC0Nx8Q-6" target="0zQAIz0TJpnZ4_54E1hD-51">
          <mxGeometry relative="1" as="geometry" />
        </mxCell>
        <mxCell id="jhWNpwx-mN4jyrC0Nx8Q-8" value="X" style="edgeLabel;html=1;align=center;verticalAlign=middle;resizable=0;points=[];labelBackgroundColor=none;" vertex="1" connectable="0" parent="jhWNpwx-mN4jyrC0Nx8Q-7">
          <mxGeometry x="0.0023" y="-2" relative="1" as="geometry">
            <mxPoint y="2" as="offset" />
          </mxGeometry>
        </mxCell>
        <mxCell id="jhWNpwx-mN4jyrC0Nx8Q-9" style="rounded=0;orthogonalLoop=1;jettySize=auto;html=1;entryX=0.962;entryY=0.009;entryDx=0;entryDy=0;entryPerimeter=0;" edge="1" parent="1" source="jhWNpwx-mN4jyrC0Nx8Q-6" target="0zQAIz0TJpnZ4_54E1hD-20">
          <mxGeometry relative="1" as="geometry" />
        </mxCell>
        <mxCell id="jhWNpwx-mN4jyrC0Nx8Q-6" value="3. 线程2读不到已经失效的缓存行" style="text;html=1;strokeColor=none;fillColor=none;align=center;verticalAlign=middle;whiteSpace=wrap;rounded=0;" vertex="1" parent="1">
          <mxGeometry x="690" y="270" width="100" height="30" as="geometry" />
        </mxCell>
        <mxCell id="jhWNpwx-mN4jyrC0Nx8Q-11" value="4. 去主存中查找" style="text;html=1;strokeColor=none;fillColor=none;align=center;verticalAlign=middle;whiteSpace=wrap;rounded=0;" vertex="1" parent="1">
          <mxGeometry x="700" y="400" width="60" height="30" as="geometry" />
        </mxCell>
      </root>
    </mxGraphModel>
  </diagram>
</mxfile>
